<svg width="150" height="150" viewBox="0 0 150 150" fill="none" xmlns="http://www.w3.org/2000/svg">
<rect width="150" height="150" fill="#080808"/>
<path d="M71.3788 103.298C72.2364 94.7841 73.811 70.7858 64.7761 67.3519C64.2396 67.148 63.6535 67.0859 63.083 67.1489C61.158 67.3614 59.8965 68.2508 59.2514 68.8444C58.885 69.1815 58.6858 69.6452 58.5266 70.1169C56.3185 76.66 46.5737 82.1103 42.0287 84.3472C41.2245 84.7431 41.3318 85.8345 42.2214 85.9441C45.8582 86.3922 52.8239 86.2414 59.2975 80.3993C59.8981 79.8573 60.873 80.1717 60.9399 80.978C61.3777 86.2583 61.8377 100.986 54.7853 111.393C53.6735 113.034 53.655 115.258 54.9865 116.727L60.0678 122.329C66.162 127.787 95.2995 117.672 101.066 83.6921C106.762 50.1253 83.3476 33.3448 74.5117 28.2945C73.6485 27.8011 72.8559 28.7641 73.4309 29.5753C95.596 60.8425 89.5965 85.1991 73.0724 104.047C72.4515 104.755 71.2844 104.235 71.3788 103.298Z" fill="url(#paint0_radial_544_2663)"/>
<defs>
<radialGradient id="paint0_radial_544_2663" cx="0" cy="0" r="1" gradientUnits="userSpaceOnUse" gradientTransform="translate(56.2765 115.158) rotate(-74.3553) scale(86.1263 55.9821)">
<stop offset="0.5" stop-color="#F3EBE6"/>
<stop offset="1" stop-color="#9100FF"/>
</radialGradient>
</defs>
</svg>
